<svg xmlns="http://www.w3.org/2000/svg" width="64" height="64" viewBox="0 0 64 64" role="img" aria-labelledby="title desc">
  <title id="title">bio_page_settings_resources</title>
  <desc id="desc">Production candidate vector icon for bio_pages; transparent background.</desc>
  <g fill="none" stroke-linecap="round" stroke-linejoin="round">
    <circle cx="32" cy="32" r="25" fill="#DCFCE7" stroke="#059669" stroke-width="1.5" opacity="0.65"/>
    <circle cx="32" cy="32" r="9" fill="none" stroke="#059669" stroke-width="3"/>
    <path d="M32 13 V20 M32 44 V51 M13 32 H20 M44 32 H51 M18 18 L23 23 M41 41 L46 46 M46 18 L41 23 M23 41 L18 46" stroke="#059669" stroke-width="3"/>
    <path d="M18 20 C18 14 46 14 46 20 C46 26 18 26 18 20 Z" stroke="#059669" stroke-width="3"/>
    <path d="M18 20 V42 C18 48 46 48 46 42 V20" stroke="#059669" stroke-width="3"/>
    <path d="M18 31 C18 37 46 37 46 31" stroke="#059669" stroke-width="2.4"/>
  </g>
</svg>
