<svg xmlns="http://www.w3.org/2000/svg" width="64" height="64" viewBox="0 0 64 64" fill="none">
<defs>
  <linearGradient id="softBlue" x1="8" y1="8" x2="56" y2="58" gradientUnits="userSpaceOnUse">
    <stop offset="0" stop-color="#EAF4FF"/>
    <stop offset="1" stop-color="#D9EAFE"/>
  </linearGradient>
  <linearGradient id="softMint" x1="10" y1="10" x2="54" y2="54" gradientUnits="userSpaceOnUse">
    <stop offset="0" stop-color="#EAF9F3"/>
    <stop offset="1" stop-color="#D7F0E7"/>
  </linearGradient>
  <linearGradient id="softAmber" x1="10" y1="12" x2="56" y2="54" gradientUnits="userSpaceOnUse">
    <stop offset="0" stop-color="#FFF5DF"/>
    <stop offset="1" stop-color="#FFE7B8"/>
  </linearGradient>
  <linearGradient id="softViolet" x1="10" y1="10" x2="54" y2="54" gradientUnits="userSpaceOnUse">
    <stop offset="0" stop-color="#F2EFFF"/>
    <stop offset="1" stop-color="#E4DDFB"/>
  </linearGradient>
  <filter id="softShadow" x="-20%" y="-20%" width="140%" height="140%">
    <feDropShadow dx="0" dy="2" stdDeviation="1.3" flood-color="#476178" flood-opacity="0.14"/>
  </filter>
</defs>
  <circle cx="32" cy="34" r="24" fill="url(#softBlue)" opacity="0.78"/>
  <path d="M13 25.5c0-2 1.6-3.5 3.5-3.5h10.1l3.6 4.1h17.3c2 0 3.5 1.6 3.5 3.5v16.2c0 2-1.6 3.5-3.5 3.5h-31c-2 0-3.5-1.6-3.5-3.5V25.5Z" fill="#FFFFFF" stroke="#406B92" stroke-width="2.2" stroke-linejoin="round" filter="url(#softShadow)"/>
  <path d="M13.7 31.2h36.6" stroke="#7EA4C8" stroke-width="2" stroke-linecap="round"/>
  <path d="M22 38h20M22 43h13" stroke="#9CB7D4" stroke-width="2" stroke-linecap="round"/>
  <circle cx="48" cy="18" r="4" fill="#6DA9E4" opacity="0.35"/>
</svg>
