<svg xmlns="http://www.w3.org/2000/svg" width="64" height="64" viewBox="0 0 64 64" fill="none">
<defs>
  <linearGradient id="softBlue" x1="9" y1="8" x2="56" y2="57" gradientUnits="userSpaceOnUse">
    <stop offset="0" stop-color="#EAF4FF"/>
    <stop offset="1" stop-color="#DCEBFE"/>
  </linearGradient>
  <linearGradient id="softMint" x1="9" y1="8" x2="56" y2="57" gradientUnits="userSpaceOnUse">
    <stop offset="0" stop-color="#EAF8F2"/>
    <stop offset="1" stop-color="#D9F0E6"/>
  </linearGradient>
  <linearGradient id="softAmber" x1="9" y1="8" x2="56" y2="57" gradientUnits="userSpaceOnUse">
    <stop offset="0" stop-color="#FFF6E4"/>
    <stop offset="1" stop-color="#FFE8BD"/>
  </linearGradient>
  <linearGradient id="softViolet" x1="9" y1="8" x2="56" y2="57" gradientUnits="userSpaceOnUse">
    <stop offset="0" stop-color="#F2EFFF"/>
    <stop offset="1" stop-color="#E6E0FC"/>
  </linearGradient>
  <filter id="softShadow" x="-20%" y="-20%" width="140%" height="140%">
    <feDropShadow dx="0" dy="2" stdDeviation="1.2" flood-color="#476178" flood-opacity="0.13"/>
  </filter>
</defs>
  <circle cx="32" cy="34" r="24" fill="url(#softAmber)" opacity="0.84"/>
  <path d="M17 25c0-2 1.6-3.5 3.5-3.5h9.5l3.5 4h13c2 0 3.5 1.6 3.5 3.5v17c0 2-1.6 3.5-3.5 3.5h-26c-2 0-3.5-1.6-3.5-3.5V25Z" fill="#FFFFFF" stroke="#986C24" stroke-width="2.2" stroke-linejoin="round" filter="url(#softShadow)"/>
  <path d="M18 30h31" stroke="#D9A04B" stroke-width="2"/>
  <path d="M32 35v8M28 39h8" stroke="#986C24" stroke-width="2.2" stroke-linecap="round"/>
</svg>
