<svg xmlns="http://www.w3.org/2000/svg" width="64" height="64" viewBox="0 0 64 64" fill="none">
<defs>
  <linearGradient id="softBlue" x1="9" y1="8" x2="56" y2="57" gradientUnits="userSpaceOnUse">
    <stop offset="0" stop-color="#EAF4FF"/>
    <stop offset="1" stop-color="#DCEBFE"/>
  </linearGradient>
  <linearGradient id="softMint" x1="9" y1="8" x2="56" y2="57" gradientUnits="userSpaceOnUse">
    <stop offset="0" stop-color="#EAF8F2"/>
    <stop offset="1" stop-color="#D9F0E6"/>
  </linearGradient>
  <linearGradient id="softAmber" x1="9" y1="8" x2="56" y2="57" gradientUnits="userSpaceOnUse">
    <stop offset="0" stop-color="#FFF6E4"/>
    <stop offset="1" stop-color="#FFE8BD"/>
  </linearGradient>
  <linearGradient id="softViolet" x1="9" y1="8" x2="56" y2="57" gradientUnits="userSpaceOnUse">
    <stop offset="0" stop-color="#F2EFFF"/>
    <stop offset="1" stop-color="#E6E0FC"/>
  </linearGradient>
  <filter id="softShadow" x="-20%" y="-20%" width="140%" height="140%">
    <feDropShadow dx="0" dy="2" stdDeviation="1.2" flood-color="#476178" flood-opacity="0.13"/>
  </filter>
</defs>
  <circle cx="32" cy="34" r="24" fill="url(#softBlue)" opacity="0.82"/>
  <path d="M20 12h18l9 9v31c0 2.2-1.8 4-4 4H20c-2.2 0-4-1.8-4-4V16c0-2.2 1.8-4 4-4Z" fill="#FFFFFF" stroke="#456E9A" stroke-width="2.2" stroke-linejoin="round" filter="url(#softShadow)"/><path d="M38 12v9h9" stroke="#7EA4C8" stroke-width="2.2" stroke-linecap="round" stroke-linejoin="round"/>
  <rect x="22" y="27" width="20" height="5" rx="2" fill="#7EA4C8" opacity="0.75"/>
  <path d="M23 38h17M23 44h13" stroke="#9CB7D4" stroke-width="2.2" stroke-linecap="round"/>
  <circle cx="45" cy="43" r="5" fill="#DCEBFE" stroke="#456E9A" stroke-width="2"/>
</svg>
